<?xml version="1.0" encoding="UTF-8"?>
<svg width="512" height="512" viewBox="0 0 512 512" fill="none" xmlns="http://www.w3.org/2000/svg">
  <rect width="512" height="512" rx="128" fill="#0A84FF"/>
  <path d="M256 412.8C247.467 412.8 238.933 409.6 232.533 403.2L129.067 299.733C89.6 260.267 89.6 195.2 129.067 155.733C147.2 137.6 171.733 128 198.4 128C225.067 128 249.6 137.6 267.733 155.733L256 167.467L244.267 155.733C262.4 137.6 286.933 128 313.6 128C340.267 128 364.8 137.6 382.933 155.733C422.4 195.2 422.4 260.267 382.933 299.733L279.467 403.2C273.067 409.6 264.533 412.8 256 412.8Z" fill="white"/>
</svg> 